<?xml version="1.0" encoding="utf-8"?>
<!-- Generator: Adobe Illustrator 26.3.1, SVG Export Plug-In . SVG Version: 6.00 Build 0)  -->
<svg version="1.1" id="Calque_1" xmlns="http://www.w3.org/2000/svg" xmlns:xlink="http://www.w3.org/1999/xlink" x="0px" y="0px"
	 viewBox="0 0 393 165.47" style="enable-background:new 0 0 393 165.47;" xml:space="preserve">
<style type="text/css">
	.st0{fill:#FFFFFF;}
	.st1{fill:#006DB6;}
	.st2{fill:#19407E;}
	.st3{fill:#E30613;}
</style>
<g>
	<g>
		<path class="st0" d="M54.15,165.47l0.8-16.04H39.63l-6.95,16.04H4.79l45.09-86.08h31.26l0.56,86.08H54.15z M56.66,131.26
			l2.1-25.21l-11.22,25.21H56.66z"/>
		<path class="st1" d="M7.82,163.64l43.17-82.41h28.34l0.53,82.41H56.07l0.8-16.04H38.43l-6.95,16.04H7.82z M61.42,96.17h-0.27
			l-16.44,36.92h13.63L61.42,96.17z"/>
		<polygon class="st0" points="92.6,165.47 109.71,99.54 91.28,99.54 96.35,79.39 161.07,79.39 156.01,99.54 137.02,99.54 
			119.91,165.47 		"/>
		<polygon class="st2" points="97.78,81.23 158.72,81.23 154.58,97.71 135.6,97.71 118.49,163.64 94.97,163.64 112.08,97.71 
			93.63,97.71 		"/>
		<polygon class="st0" points="186.49,165.47 181.3,138.96 176.7,144.19 171.24,165.47 143.93,165.47 166.13,79.39 193.43,79.39 
			186.46,106.69 207.82,79.39 236.72,79.39 204.03,118.08 215.17,165.47 		"/>
		<polygon class="st3" points="146.3,163.64 167.55,81.23 191.07,81.23 182.65,114.19 182.92,114.19 208.71,81.23 232.77,81.23 
			202.03,117.6 212.86,163.64 188,163.64 182.38,134.96 175.03,143.31 169.82,163.64 		"/>
		<path class="st0" d="M222.55,165.14v-20.07h6.5c2.46,0,4.07,0.1,4.82,0.3c1.15,0.3,2.11,0.96,2.89,1.96
			c0.78,1.01,1.16,2.31,1.16,3.91c0,1.23-0.22,2.27-0.67,3.11c-0.45,0.84-1.02,1.5-1.7,1.98c-0.69,0.48-1.39,0.8-2.1,0.95
			c-0.97,0.19-2.37,0.29-4.2,0.29h-2.64v7.57H222.55z M226.61,148.47v5.69h2.22c1.6,0,2.66-0.1,3.2-0.31
			c0.54-0.21,0.96-0.54,1.27-0.99c0.31-0.45,0.46-0.97,0.46-1.56c0-0.73-0.21-1.33-0.64-1.81c-0.43-0.47-0.97-0.77-1.63-0.89
			c-0.48-0.09-1.46-0.14-2.92-0.14H226.61z"/>
		<path class="st0" d="M249.64,160.51l3.83,0.64c-0.49,1.41-1.27,2.48-2.33,3.21c-1.06,0.73-2.39,1.1-3.99,1.1
			c-2.53,0-4.4-0.83-5.61-2.48c-0.96-1.32-1.44-2.99-1.44-5.01c0-2.41,0.63-4.3,1.89-5.66c1.26-1.36,2.85-2.05,4.78-2.05
			c2.16,0,3.87,0.71,5.12,2.14c1.25,1.43,1.85,3.62,1.79,6.56h-9.64c0.03,1.14,0.34,2.03,0.93,2.66c0.59,0.63,1.33,0.95,2.22,0.95
			c0.6,0,1.11-0.16,1.52-0.49C249.12,161.77,249.43,161.24,249.64,160.51 M249.86,156.63c-0.03-1.11-0.31-1.96-0.86-2.54
			c-0.55-0.58-1.21-0.87-2-0.87c-0.84,0-1.53,0.31-2.08,0.92c-0.55,0.61-0.82,1.44-0.81,2.49H249.86z"/>
		<path class="st0" d="M260.5,165.14h-3.85V150.6h3.57v2.07c0.61-0.98,1.16-1.62,1.65-1.93c0.49-0.31,1.04-0.47,1.66-0.47
			c0.88,0,1.72,0.24,2.53,0.73l-1.19,3.35c-0.65-0.42-1.25-0.63-1.81-0.63c-0.54,0-0.99,0.15-1.37,0.44
			c-0.37,0.3-0.67,0.83-0.88,1.61c-0.21,0.78-0.32,2.4-0.32,4.87V165.14z"/>
		<path class="st0" d="M266.04,150.6h2.14v-1.09c0-1.22,0.13-2.14,0.39-2.74c0.26-0.6,0.74-1.09,1.44-1.47
			c0.7-0.38,1.58-0.57,2.65-0.57c1.09,0,2.17,0.16,3.22,0.49l-0.52,2.68c-0.61-0.15-1.2-0.22-1.77-0.22c-0.56,0-0.96,0.13-1.2,0.39
			c-0.24,0.26-0.36,0.76-0.36,1.5v1.03h2.87v3.03h-2.87v11.51h-3.85v-11.51h-2.14V150.6z"/>
		<path class="st0" d="M276.17,157.67c0-1.28,0.31-2.51,0.94-3.71c0.63-1.2,1.52-2.11,2.68-2.74c1.15-0.63,2.44-0.94,3.87-0.94
			c2.2,0,4,0.71,5.41,2.14c1.4,1.43,2.11,3.23,2.11,5.41c0,2.2-0.71,4.02-2.13,5.47c-1.42,1.45-3.21,2.17-5.36,2.17
			c-1.33,0-2.6-0.3-3.81-0.9c-1.21-0.6-2.13-1.49-2.76-2.65C276.49,160.75,276.17,159.34,276.17,157.67 M280.11,157.87
			c0,1.44,0.34,2.55,1.03,3.31c0.68,0.77,1.53,1.15,2.53,1.15c1,0,1.85-0.38,2.52-1.15c0.68-0.77,1.02-1.88,1.02-3.34
			c0-1.42-0.34-2.52-1.02-3.29c-0.68-0.77-1.52-1.15-2.52-1.15c-1,0-1.85,0.38-2.53,1.15C280.46,155.33,280.11,156.43,280.11,157.87
			"/>
		<path class="st0" d="M297.87,165.14h-3.85V150.6h3.57v2.07c0.61-0.98,1.16-1.62,1.65-1.93c0.49-0.31,1.04-0.47,1.66-0.47
			c0.88,0,1.72,0.24,2.53,0.73l-1.19,3.35c-0.65-0.42-1.25-0.63-1.81-0.63c-0.54,0-0.99,0.15-1.37,0.44
			c-0.37,0.3-0.67,0.83-0.88,1.61c-0.21,0.78-0.32,2.4-0.32,4.87V165.14z"/>
		<path class="st0" d="M304.81,150.6h3.55v1.98c1.27-1.54,2.78-2.31,4.53-2.31c0.93,0,1.74,0.19,2.42,0.57
			c0.68,0.38,1.25,0.96,1.68,1.74c0.64-0.78,1.33-1.35,2.07-1.74c0.74-0.38,1.53-0.57,2.37-0.57c1.07,0,1.97,0.22,2.71,0.65
			c0.74,0.43,1.29,1.07,1.66,1.91c0.26,0.62,0.4,1.62,0.4,3.01v9.29h-3.85v-8.31c0-1.44-0.13-2.37-0.4-2.79
			c-0.36-0.55-0.9-0.82-1.64-0.82c-0.54,0-1.05,0.16-1.52,0.49c-0.48,0.33-0.82,0.81-1.03,1.44c-0.21,0.63-0.31,1.64-0.31,3v6.98
			h-3.85v-7.97c0-1.41-0.07-2.33-0.21-2.74c-0.14-0.41-0.35-0.72-0.64-0.92c-0.29-0.2-0.68-0.3-1.17-0.3c-0.59,0-1.13,0.16-1.6,0.48
			c-0.47,0.32-0.81,0.78-1.02,1.38c-0.21,0.6-0.31,1.6-0.31,3v7.06h-3.85V150.6z"/>
		<path class="st0" d="M332.9,155.04l-3.49-0.63c0.39-1.41,1.07-2.45,2.03-3.12c0.96-0.68,2.38-1.01,4.27-1.01
			c1.72,0,2.99,0.2,3.83,0.61c0.84,0.41,1.43,0.92,1.77,1.55c0.34,0.63,0.51,1.77,0.51,3.44l-0.04,4.49c0,1.28,0.06,2.22,0.18,2.83
			c0.12,0.61,0.35,1.26,0.69,1.95h-3.81c-0.1-0.26-0.22-0.63-0.37-1.14c-0.06-0.23-0.11-0.38-0.14-0.45
			c-0.66,0.64-1.36,1.12-2.11,1.44c-0.75,0.32-1.55,0.48-2.4,0.48c-1.5,0-2.68-0.41-3.54-1.22c-0.86-0.81-1.29-1.84-1.29-3.08
			c0-0.82,0.2-1.55,0.59-2.2c0.39-0.64,0.94-1.14,1.65-1.48c0.71-0.34,1.73-0.64,3.06-0.9c1.8-0.34,3.04-0.65,3.74-0.94v-0.38
			c0-0.74-0.18-1.27-0.55-1.58c-0.37-0.31-1.05-0.47-2.07-0.47c-0.68,0-1.22,0.14-1.6,0.4C333.44,153.89,333.13,154.36,332.9,155.04
			 M338.04,158.16c-0.49,0.16-1.27,0.36-2.34,0.59c-1.07,0.23-1.77,0.45-2.09,0.67c-0.5,0.36-0.75,0.81-0.75,1.36
			c0,0.54,0.2,1,0.6,1.4c0.4,0.39,0.91,0.59,1.53,0.59c0.69,0,1.35-0.23,1.98-0.68c0.47-0.35,0.77-0.77,0.92-1.27
			c0.1-0.33,0.15-0.95,0.15-1.88V158.16z"/>
		<path class="st0" d="M358.84,165.14h-3.85v-7.42c0-1.57-0.08-2.58-0.25-3.05c-0.16-0.46-0.43-0.82-0.8-1.07
			c-0.37-0.26-0.81-0.38-1.33-0.38c-0.67,0-1.26,0.18-1.79,0.55c-0.53,0.37-0.89,0.85-1.09,1.45c-0.2,0.6-0.29,1.72-0.29,3.34v6.58
			h-3.85V150.6h3.57v2.14c1.27-1.64,2.86-2.46,4.79-2.46c0.85,0,1.62,0.15,2.33,0.46c0.7,0.31,1.23,0.7,1.59,1.17
			c0.36,0.47,0.61,1.01,0.75,1.62c0.14,0.6,0.21,1.47,0.21,2.59V165.14z"/>
		<path class="st0" d="M375.41,154.9l-3.79,0.68c-0.13-0.76-0.42-1.33-0.87-1.71c-0.45-0.38-1.04-0.57-1.76-0.57
			c-0.96,0-1.72,0.33-2.29,0.99c-0.57,0.66-0.86,1.77-0.86,3.32c0,1.72,0.29,2.94,0.87,3.65c0.58,0.71,1.36,1.07,2.33,1.07
			c0.73,0,1.33-0.21,1.79-0.62c0.47-0.42,0.79-1.13,0.99-2.14l3.78,0.64c-0.39,1.73-1.14,3.04-2.26,3.93
			c-1.11,0.89-2.61,1.33-4.48,1.33c-2.13,0-3.82-0.67-5.09-2.01c-1.26-1.34-1.9-3.2-1.9-5.57c0-2.4,0.63-4.27,1.9-5.61
			c1.27-1.34,2.98-2.01,5.15-2.01c1.77,0,3.18,0.38,4.22,1.14C374.2,152.18,374.95,153.34,375.41,154.9"/>
		<path class="st0" d="M386.74,160.51l3.83,0.64c-0.49,1.41-1.27,2.48-2.33,3.21c-1.06,0.73-2.39,1.1-3.99,1.1
			c-2.53,0-4.4-0.83-5.61-2.48c-0.96-1.32-1.44-2.99-1.44-5.01c0-2.41,0.63-4.3,1.89-5.66c1.26-1.36,2.85-2.05,4.78-2.05
			c2.16,0,3.87,0.71,5.12,2.14c1.25,1.43,1.85,3.62,1.79,6.56h-9.64c0.03,1.14,0.34,2.03,0.93,2.66c0.59,0.63,1.33,0.95,2.22,0.95
			c0.6,0,1.11-0.16,1.52-0.49C386.22,161.77,386.54,161.24,386.74,160.51 M386.96,156.63c-0.03-1.11-0.31-1.96-0.86-2.54
			c-0.55-0.58-1.21-0.87-2-0.87c-0.84,0-1.53,0.31-2.08,0.92c-0.55,0.61-0.82,1.44-0.81,2.49H386.96z"/>
		<g>
			<path class="st0" d="M393,120.06c-0.02-2.57-0.27-5.16-0.83-7.74c-0.28-1.29-0.72-2.56-1.29-3.81c-0.58-1.24-1.34-2.45-2.42-3.46
				c-0.57-0.54-1.07-0.84-1.6-1.25c-0.52-0.4-1.06-0.74-1.59-1.11c-1.06-0.73-2.14-1.41-3.24-2.07c-2.2-1.3-4.41-2.55-6.68-3.69
				c-3.02-1.55-6.1-3-9.23-4.32c0.26-4.82,0.42-9.64,0.59-14.46l0.05-1.87l0.03-0.93c0.04-0.6-0.44-1.26-1.09-1.37l-3.71-0.65
				l-1.85-0.32l-1.85-0.23l-1.52-0.18c-0.33-0.72-0.66-1.43-1.01-2.1c-0.43-0.86-0.88-1.66-1.29-2.38l0.49,2.97
				c0.07,0.45,0.15,0.89,0.23,1.32l-0.27-0.03c-1.37-0.26-2.75-0.5-4.12-0.69c-1.31-0.18-2.63-0.33-3.94-0.46
				c0.31-0.73,0.61-1.46,0.9-2.2c0.92-0.09,1.85-0.2,2.82-0.32l3.89-0.59c-1.07-0.23-2.27-0.4-3.51-0.59
				c-0.37-0.05-0.75-0.09-1.13-0.13l-3.81-2.51l-0.01-0.01l-0.01,0l-2.57-0.55c-0.86-0.19-1.73-0.29-2.59-0.44
				c-1.73-0.29-3.47-0.51-5.2-0.72c-1.74-0.23-3.48-0.41-5.22-0.6c-1.74-0.19-3.48-0.37-5.22-0.53c-6.97-0.68-13.95-1.24-20.92-1.78
				c-6.98-0.55-13.96-1-20.95-1.43c-6.83-0.43-13.67-0.82-20.51-1.19l-14.4-24.68l-14.7-25.01l-0.2-0.34l-0.34-0.12
				c-8.51-3.01-17.28-3.99-25.99-4.94c-8.73-0.88-17.48-1.42-26.23-1.8c-17.5-0.76-35-0.82-52.49-0.69
				C110.97,0.21,93.48,0.6,76,1.17c-8.74,0.27-17.48,0.67-26.21,1.06l-13.1,0.64l-1.64,0.08l-0.81,0.04l-0.39,0.02
				c-0.17,0.01-0.35,0.01-0.53,0.04c-0.71,0.11-1.37,0.45-1.85,0.86c-0.25,0.2-0.47,0.42-0.66,0.62c-0.16,0.17-0.33,0.33-0.42,0.4
				c-0.05-0.01-0.1-0.01-0.17-0.03c-0.16-0.05-0.37-0.16-0.62-0.29c-0.26-0.13-0.5-0.28-0.94-0.4c-0.22-0.05-0.49-0.08-0.82,0.02
				c-0.33,0.09-0.67,0.42-0.77,0.74c-0.11,0.32-0.09,0.58-0.06,0.8c0,0.08,0.08,0.32,0.15,0.43c0.06,0.1,0.13,0.21,0.19,0.28
				c0.24,0.3,0.47,0.49,0.7,0.69c0.32,0.26,0.64,0.49,0.97,0.72l-3.91,17.39l-3.87,17.5c-1.61-0.25-3.12-0.25-4.67-0.24
				c-1.7,0.03-3.38,0.13-5.07,0.26c-0.85,0.09-1.66,0.1-2.56,0.31c-0.87,0.24-1.66,0.71-2.32,1.29c-1.28,1.22-2.13,2.76-2.75,4.34
				c-1.23,3.18-1.8,6.55-2.16,9.89c-0.34,3.36-0.47,6.73-0.4,10.1c0.02-3.37,0.24-6.73,0.68-10.06c0.46-3.32,1.09-6.65,2.36-9.73
				c0.63-1.53,1.49-2.99,2.68-4.08c0.62-0.51,1.32-0.9,2.07-1.1c0.74-0.16,1.63-0.17,2.45-0.24c1.67-0.1,3.35-0.17,5.02-0.16
				c1.65,0.02,3.39,0.06,4.9,0.38l0.47,0.1l0.11-0.44l4.3-17.83l4.25-17.84l0.12-0.51l-0.45-0.3c-0.32-0.21-0.64-0.45-0.95-0.69
				c0.12,0.06,0.25,0.12,0.4,0.17c0.18,0.06,0.38,0.11,0.59,0.13l0.16,0.01c0.07,0,0.19-0.01,0.28-0.03
				c0.19-0.04,0.31-0.11,0.43-0.18c0.39-0.26,0.56-0.47,0.76-0.66c0.19-0.19,0.36-0.35,0.54-0.49c0.35-0.29,0.7-0.45,1.08-0.5
				l3.19-0.12l13.1-0.47l26.2-0.78c17.47-0.5,34.94-0.82,52.41-0.9c17.47-0.07,34.94,0.13,52.38,0.76
				c8.72,0.34,17.43,0.84,26.1,1.68c4.33,0.41,8.65,0.96,12.93,1.63c4.13,0.75,8.29,1.54,12.16,2.95l14.64,24.58l14.93,24.88
				l0.23,0.39l0.44,0.02c13.98,0.57,27.95,1.29,41.92,2.06c6.98,0.4,13.97,0.81,20.94,1.35c1.74,0.12,3.49,0.27,5.23,0.43
				c1.74,0.15,3.48,0.3,5.22,0.49c1.74,0.18,3.48,0.35,5.21,0.59c0.86,0.12,1.74,0.2,2.59,0.36l2.56,0.48l3.8,2.36
				c-0.88-0.1-1.77-0.19-2.68-0.25l-0.54-0.03l-0.34,0.59c-0.65,1.12-1.26,2.26-1.85,3.4c-1.52-0.2-3.03-0.43-4.54-0.71
				c-4.95-0.71-9.9-1.29-14.85-1.83c-4.96-0.5-9.91-0.97-14.87-1.39c-4.96-0.38-9.92-0.79-14.89-1.09
				c-9.93-0.64-19.88-1.14-29.84-1.32c9.89,1.21,19.78,2.24,29.68,3.24c9.89,1.02,19.79,1.95,29.67,3.02
				c4.94,0.5,9.87,1.06,14.79,1.69c1.26,0.2,2.51,0.37,3.77,0.51l-0.01,0.01l1.71,0.22c1.85,0.24,3.71,0.45,5.58,0.59
				c1.27,0.1,2.55,0.16,3.82,0.2l3.7,0.3l1.86,0.16l1.84,0.23l3.65,0.44l0.02,0.9l0.05,1.87c0.16,4.81,0.33,9.63,0.59,14.44
				c-1.03-0.43-2.06-0.85-3.1-1.26c-0.89-0.85-1.81-1.69-2.75-2.49c-2.47-2.11-5.12-4.03-7.92-5.71c-2.8-1.67-5.78-3.12-9-3.97
				l-1.21-0.3c-0.41-0.1-0.83-0.12-1.24-0.19l-1.25-0.16l-1.19-0.1c-1.59-0.12-3.19-0.31-4.79-0.47c-3.2-0.35-6.39-0.73-9.59-1.12
				l-19.17-2.44l-38.14-5.02c-7.86-3.95-15.7-7.94-23.4-12.2l-11.63-6.46l-5.85-3.21l-2.98-1.54c-0.99-0.52-1.98-1.03-3.01-1.49
				c-4.01-2.01-8.29-3.55-12.63-4.78c-2.19-0.54-4.37-1.12-6.59-1.47c-1.11-0.19-2.21-0.43-3.32-0.59l-3.33-0.44
				c-3.9-0.48-7.81-0.83-11.71-1.1c0.07-2.39,0.13-4.78,0.15-7.16c0.03-2.77,0.05-5.54,0.05-8.31l-0.01-0.08
				c-0.01-0.31,0.03-0.77,0.14-1.13c0.11-0.37,0.28-0.72,0.5-1.02c0.44-0.6,1.11-1,1.88-1.24c0.78-0.26,1.63-0.29,2.54-0.29
				l2.86,0.07l11.43,0.15l11.43,0.04l11.43-0.07l0.17,0l0.16-0.05c0.11-0.03,0.46-0.08,0.71-0.05c0.27,0.01,0.55,0.06,0.81,0.15
				c0.53,0.17,1.04,0.47,1.49,0.89c0.95,0.82,1.47,2.05,2.24,3.43c1.49,2.62,3.01,5.18,4.59,7.73c2.9,4.69,5.87,9.33,8.96,13.9
				c-2.18,0.24-4.36,0.52-6.53,0.89l-0.74,0.12l-0.07,0.62c-0.07,0.62-0.12,1.23-0.17,1.86c-0.04,0.62-0.11,1.24-0.13,1.86
				c-0.07,1.24-0.12,2.49-0.1,3.75c0.45-1.18,0.83-2.37,1.19-3.56c0.19-0.59,0.34-1.2,0.51-1.79c0.1-0.36,0.19-0.72,0.28-1.07
				c2.03-0.04,4.06-0.13,6.08-0.27c1.93-0.14,3.86-0.32,5.79-0.55c0.58,1.6,1.18,3.19,1.84,4.77c0.79,1.87,1.62,3.73,2.59,5.54
				c-0.25-2.04-0.63-4.04-1.07-6.02c-0.44-1.98-0.94-3.94-1.48-5.89l-0.24-0.86l-0.97,0.05c-2.21,0.12-4.42,0.31-6.62,0.54
				c-2.53-4.93-5.14-9.8-7.75-14.68c-1.39-2.63-2.84-5.25-4.16-7.89c-0.62-1.23-1.25-2.85-2.54-4.07c-0.63-0.61-1.4-1.13-2.29-1.44
				c-0.44-0.16-0.9-0.25-1.37-0.29c-0.42-0.03-0.79-0.03-1.27,0.07l-11.36-0.07l-11.45,0.04l-11.44,0.15l-2.86,0.07
				c-0.99,0.05-2.06,0.13-3.09,0.52c-1.02,0.36-2.05,1.03-2.69,2.02c-0.62,1.01-0.87,2.11-0.72,3.3l-0.01-0.08
				c0.17,2.76,0.36,5.53,0.57,8.29c0.18,2.38,0.39,4.75,0.6,7.13c-4.92-0.34-9.85-0.56-14.77-0.77c0.29-3.68,0.52-7.36,0.74-11.04
				c0.07-1.01,0.11-2.02,0.11-3.12c-0.09-1.09-0.29-2.22-0.87-3.26c-0.57-1.05-1.57-1.88-2.67-2.31c-1.12-0.44-2.22-0.6-3.46-0.48
				l0.15-0.01c-3.17-0.11-6.34-0.18-9.52-0.24c-3.17-0.07-6.35-0.12-9.52-0.14c-6.35-0.07-12.69-0.05-19.05,0.04
				c-1.59,0.04-3.17,0.07-4.79,0.16c-1.61,0.09-3.45,0.28-5.06,1.24c-0.8,0.47-1.54,1.14-2.05,1.96c-0.26,0.41-0.46,0.86-0.59,1.33
				c-0.07,0.23-0.12,0.47-0.15,0.73c-0.01,0.06-0.01,0.13-0.02,0.2l-0.01,0.19l-0.01,0.3l-0.12,4.75
				c-0.11,5.97-0.19,11.95-0.13,17.93c-5.05,1.14-10.09,2.36-15.1,3.65c1.36-5.64,2.57-11.3,3.72-16.99c0.3-1.5,0.59-3.01,0.84-4.52
				c0.12-0.76,0.25-1.52,0.35-2.28c0.12-0.75,0.2-1.57,0.18-2.42c-0.07-0.84-0.2-1.72-0.65-2.51c-0.17-0.42-0.49-0.76-0.76-1.11
				c-0.32-0.31-0.65-0.63-1.03-0.86c-0.74-0.49-1.56-0.81-2.38-0.99c-0.84-0.18-1.63-0.26-2.53-0.23l0.07,0l-14.11-0.18l-14.11-0.11
				L50.8,14.92l-7.05,0c-0.56,0-1.22,0-1.88,0.07c-0.66,0.07-1.34,0.21-2.02,0.45c-0.67,0.26-1.34,0.64-1.91,1.19
				c-0.28,0.27-0.54,0.6-0.74,0.95c-0.1,0.18-0.19,0.37-0.27,0.56c-0.06,0.19-0.12,0.32-0.16,0.57c-1.71,6.31-3.36,12.63-4.92,18.98
				c-0.78,3.18-1.57,6.35-2.22,9.6c-0.34,1.54-0.61,3.61,0.21,5.39c0.39,0.89,1.02,1.67,1.76,2.26c0.77,0.59,1.55,1,2.54,1.25
				l0.09,0.02l0.1,0l8.69-0.16c2.9-0.05,5.8-0.11,8.69-0.2c4.92-0.14,9.85-0.26,14.77-0.43c-8.77,2.74-17.48,5.66-26.12,8.79
				c-6.81,2.46-13.6,5.02-20.33,7.69C13.29,74.55,6.61,77.36,0,80.31c13.4-5.5,26.99-10.51,40.69-15.16
				c13.72-4.61,27.53-8.92,41.48-12.75c13.96-3.78,28.07-6.97,42.25-9.69c14.21-2.53,28.53-4.37,42.91-5.12
				c8.83,0.41,17.66,0.85,26.38,1.97l3.27,0.44c1.09,0.16,2.16,0.39,3.23,0.59c2.17,0.35,4.27,0.92,6.39,1.45
				c4.18,1.23,8.3,2.66,12.23,4.62c1,0.44,1.98,0.94,2.96,1.45l2.94,1.51l5.83,3.17l11.67,6.42c7.79,4.27,15.74,8.27,23.69,12.23
				l0.16,0.08l0.18,0.02c12.78,1.65,25.56,3.32,38.36,4.83l19.21,2.21c3.2,0.35,6.41,0.69,9.62,1c1.61,0.14,3.21,0.31,4.84,0.41
				l1.22,0.09l1.15,0.14c0.38,0.05,0.77,0.07,1.15,0.16l1.14,0.27c3.03,0.76,5.92,2.11,8.66,3.7c2.74,1.6,5.36,3.44,7.81,5.49
				c2.45,2.04,4.79,4.23,6.92,6.6c1.07,1.18,2.07,2.43,2.98,3.72c0.25,0.31,0.43,0.66,0.65,0.99c0.2,0.33,0.45,0.68,0.59,0.99
				c0.07,0.16,0.13,0.31,0.16,0.45c0.01,0.13,0,0.17,0.01,0.16c-0.02,0.05-0.44,0.1-0.78,0.03c-1.47-0.28-2.96-0.97-4.4-1.64
				c-1.44-0.69-2.85-1.45-4.25-2.25c-2.79-1.59-5.51-3.31-8.16-5.13c-2.64-1.83-5.23-3.75-7.67-5.84c-1.21-1.05-2.4-2.14-3.46-3.35
				c-0.53-0.6-1.04-1.23-1.46-1.91c-0.4-0.68-0.79-1.44-0.73-2.25c-0.08,0.82,0.29,1.59,0.68,2.29c0.41,0.7,0.9,1.34,1.42,1.96
				c1.04,1.24,2.2,2.37,3.39,3.46c2.39,2.17,4.94,4.16,7.56,6.05c2.62,1.88,5.32,3.67,8.09,5.33c1.39,0.83,2.8,1.62,4.25,2.36
				c1.46,0.71,2.91,1.45,4.6,1.81c0.22,0.04,0.45,0.06,0.69,0.06c0.25-0.03,0.55-0.03,0.86-0.3c0.32-0.3,0.32-0.7,0.29-0.97
				c-0.05-0.27-0.13-0.49-0.22-0.7c-0.19-0.42-0.41-0.73-0.62-1.1c-0.22-0.35-0.41-0.72-0.65-1.05c-0.92-1.35-1.91-2.65-2.98-3.88
				c-1.03-1.19-2.1-2.33-3.21-3.44c3.49,2.14,6.99,4.24,10.46,6.35c2.13,1.33,4.3,2.6,6.38,3.99c1.04,0.69,2.1,1.35,3.11,2.07
				c0.5,0.36,1.02,0.7,1.5,1.08c0.47,0.37,1.03,0.75,1.37,1.1c1.57,1.44,2.5,3.72,3.12,6.02c0.64,2.33,0.94,4.79,1.18,7.26
				c0.4,4.96,0.35,10,0.17,15.07C392.44,130.28,393.04,125.19,393,120.06 M28.54,5.49c0,0,0-0.01-0.01-0.01
				C28.54,5.47,28.54,5.48,28.54,5.49 M30.46,4.94c0.02,0,0.03,0,0.03,0L30.46,4.94z M365.42,75.35L365.42,75.35
				C365.41,75.34,365.41,75.33,365.42,75.35 M81.73,50.83c-4.93,1.43-9.85,2.91-14.76,4.44c-5.09-0.18-10.18-0.3-15.27-0.44
				c-2.9-0.08-5.8-0.15-8.69-0.2l-8.56-0.16c-0.58-0.17-1.25-0.52-1.74-0.94c-0.53-0.44-0.93-0.98-1.18-1.59
				c-0.24-0.62-0.37-1.29-0.32-2c-0.01-0.35,0.08-0.71,0.11-1.07l0.24-1.16c0.74-3.14,1.56-6.31,2.39-9.46l5.13-18.91l0.03-0.17
				c-0.01,0.06,0.02-0.08,0.05-0.13c0.03-0.07,0.07-0.15,0.11-0.23c0.09-0.15,0.2-0.3,0.34-0.43c0.28-0.27,0.64-0.48,1.07-0.64
				c0.43-0.15,0.91-0.25,1.42-0.3c0.5-0.05,1.03-0.05,1.64-0.05l7.05,0l14.1-0.04l14.1-0.11l14.1-0.18l0.03,0l0.04,0
				c1.3-0.08,2.8,0.16,3.88,0.82c1.14,0.63,1.73,1.84,1.85,3.19c0.04,0.68,0.01,1.39-0.08,2.15c-0.07,0.75-0.17,1.51-0.26,2.26
				L97.96,30c-0.44,3.02-0.91,6.04-1.4,9.06l-1.33,8.13C90.72,48.35,86.22,49.56,81.73,50.83 M124.04,40.63
				c-4.52,0.89-9.02,1.85-13.51,2.87c0.64-5.94,1.16-11.89,1.63-17.85l0.35-4.75c0.02-1.29,0.83-2.37,1.99-2.97
				c0.57-0.31,1.23-0.53,1.93-0.65c0.35-0.07,0.7-0.12,1.07-0.14c0.35-0.04,0.73-0.05,1.13-0.05c1.55-0.04,3.14-0.03,4.72-0.02
				l19.02,0.02c3.17,0.01,6.34,0,9.51-0.04c3.17-0.02,6.34-0.04,9.52-0.1l0.09,0l0.07-0.01c0.78-0.11,1.76-0.04,2.54,0.25
				c0.8,0.28,1.49,0.78,1.95,1.5c0.47,0.72,0.7,1.62,0.84,2.54c0.02,0.48,0.06,0.94,0.07,1.45l0.03,1.53
				c0.08,3.7,0.17,7.39,0.32,11.07l-0.01,0C152.74,36.11,138.32,38.02,124.04,40.63"/>
			<path class="st0" d="M237.24,68.78c-2.73-2.35-5.55-4.61-8.45-6.76c-5.82-4.27-12.01-8.13-18.67-11.07
				c-6.62-3.02-13.71-5.02-20.9-6.17c-3.6-0.59-7.23-0.9-10.86-1.07c-3.63-0.18-7.26-0.18-10.88-0.05c-7.25,0.27-14.44,1.03-21.59,2
				c-7.14,1.01-14.26,2.17-21.33,3.67c-7.06,1.47-14.09,3.24-20.91,5.64c-3.39,1.25-6.76,2.57-9.99,4.22
				c-0.8,0.42-1.59,0.86-2.38,1.29c-0.78,0.46-1.55,0.94-2.3,1.44c-0.74,0.53-1.47,1.06-2.15,1.66c-0.68,0.6-1.35,1.22-1.84,1.97
				c0.54-0.72,1.25-1.29,1.96-1.83c0.71-0.55,1.47-1.02,2.23-1.49c0.77-0.45,1.56-0.88,2.34-1.3c0.81-0.39,1.61-0.79,2.42-1.16
				c3.27-1.46,6.67-2.6,10.08-3.66c6.84-2.11,13.86-3.6,20.91-4.9c7.05-1.27,14.14-2.38,21.26-3.24c7.11-0.89,14.24-1.63,21.38-1.85
				c3.57-0.15,7.13-0.17,10.69-0.01c3.56,0.14,7.1,0.45,10.61,0.97c3.51,0.51,7,1.22,10.42,2.15c3.42,0.94,6.78,2.12,10.06,3.48
				c3.29,1.36,6.49,2.93,9.61,4.67c3.12,1.73,6.18,3.59,9.13,5.62c0.61,0.4,1.21,0.82,1.82,1.23c-0.1-0.03-0.2-0.07-0.3-0.1
				c-1.07-0.29-2.17-0.39-3.25-0.36c-2.17,0.09-4.22,0.72-6.05,1.64l-0.14,0.07l-0.01,0.01c-0.94,0.73-1.76,1.65-2.28,2.71
				c-0.53,1.05-0.76,2.25-0.59,3.35c0.3-1.07,0.82-2,1.49-2.76c0.64-0.72,1.41-1.29,2.23-1.75c1.8-0.55,3.62-0.88,5.38-0.87
				c1.77,0.02,3.46,0.45,4.98,1.32c1.52,0.86,2.87,2.12,4.03,3.6c1.18,1.47,2.18,3.14,3.08,4.92c-0.12-2.01-0.74-3.98-1.68-5.82
				c-0.33-0.62-0.71-1.22-1.14-1.8c3.25,2.47,6.43,5.04,9.59,7.63C242.63,73.55,240,71.1,237.24,68.78"/>
		</g>
	</g>
</g>
</svg>
